<svg width="18" height="18" viewBox="0 0 18 18" fill="none" xmlns="http://www.w3.org/2000/svg">
<path d="M8.99958 10.8666L2.46624 17.4C2.2218 17.6444 1.91069 17.7666 1.53291 17.7666C1.15513 17.7666 0.844021 17.6444 0.599577 17.4C0.355132 17.1555 0.23291 16.8444 0.23291 16.4666C0.23291 16.0889 0.355132 15.7778 0.599577 15.5333L7.13291 8.99997L0.599577 2.46664C0.355132 2.2222 0.23291 1.91108 0.23291 1.53331C0.23291 1.15553 0.355132 0.844418 0.599577 0.599974C0.844021 0.355529 1.15513 0.233307 1.53291 0.233307C1.91069 0.233307 2.2218 0.355529 2.46624 0.599974L8.99958 7.13331L15.5329 0.599974C15.7774 0.355529 16.0885 0.233307 16.4662 0.233307C16.844 0.233307 17.1551 0.355529 17.3996 0.599974C17.644 0.844418 17.7662 1.15553 17.7662 1.53331C17.7662 1.91108 17.644 2.2222 17.3996 2.46664L10.8662 8.99997L17.3996 15.5333C17.644 15.7778 17.7662 16.0889 17.7662 16.4666C17.7662 16.8444 17.644 17.1555 17.3996 17.4C17.1551 17.6444 16.844 17.7666 16.4662 17.7666C16.0885 17.7666 15.7774 17.6444 15.5329 17.4L8.99958 10.8666Z" fill="#1C1B1F"/>
</svg>
